inDegrees=yes
name=IK_Results.mot
DataType=double
version=3
OpenSimVersion=4.4-2022-08-12-dcf8e2cb1
endheader
time	TH_x	TH_y	TH_z	TH_transx	TH_transy	TH_transz	SC_y	SC_z	SC_x	AC_y	AC_z	AC_x	GH_y	GH_z	GH_yy	EL_x	PS_y
0	52.65469591251701	-109.6732202894809	40.48085800243973	0	0	0	-34.44671979318287	12.60343842374287	20.21460873382997	51.77821046868937	-13.42341853718952	7.13125118237753	31.11617750315272	5.460871003888061	15.19367382484199	36.30125472674967	87.83401515137859
0.01	73.71609666721162	-171.2758510641323	-13.68834489205653	0	0	0	-25.97034617889569	13.9837015587981	40.6055633732463	53.99629831278462	0.1962552248845462	9.283659759159995	8.437146737617262	25.61145674794074	-42.58538334234933	38.1959590253576	87.71180532221882
0.02	74.6446685622068	-170.8076879776495	-14.31501998028271	0	0	0	-26.26783045340854	13.51870063501418	41.23708846286307	53.33254314444407	0.6861093519514755	9.758471762945874	7.743978639436182	26.33118622406726	-43.33564175574318	38.02112195883277	87.71940146549952
0.03	75.01912031030243	-171.5383378021485	-12.1997992336338	0	0	0	-26.59304507382613	12.32954323682839	39.62819184756057	52.45308695238008	-1.268006665536305	9.726628643269772	6.066249468559085	24.53733497083621	-44.80764724639469	45.119046895864	87.30952895772103
0.04	75.46189877122526	-170.7306342594524	-13.03825758955819	0	0	0	-26.96854470144744	12.28380139677364	40.10107286484435	52.04795902433454	-0.7227523830315815	9.89988415807621	5.692103592880646	25.29347474837798	-45.18110135247609	46.04959501417817	87.25179731424552
0.05	75.50140026945597	-170.5171283383971	-12.86178110837939	0	0	0	-26.2274928438439	16.45483466037217	37.72935783345009	56.39921297602387	-1.164018350574445	7.186030682530856	11.52973962925338	23.75417420332155	-39.21540355854146	46.48817697031264	87.24131881229189
0.06	46.12420117846119	-110.8300816751537	34.397771467308	0	0	0	-27.9825060873492	16.77875125679266	13.91075054637239	64.40823462196802	-15.40716132745069	7.713044482576058	46.56201404171469	15.10428706091068	-12.34848878175331	30.40992443572805	88.2057545341262
0.07000000000000001	76.10293426203275	-173.1742981940276	-14.71062025402851	0	0	0	-34.69427086271399	12.51238978748003	32.11036795349432	52.28748299046594	-1.329539147892385	13.13874642432144	23.55008158227493	30.68783201369585	-37.49910962915047	36.75338115202056	87.80318574863348
0.08	74.44253915847422	-177.3692128176078	-16.27544287089018	0	0	0	-33.03256674772702	8.484204413639965	33.54283502243929	50.60811089389934	-3.567397213192435	16.06872328839232	20.24403568372717	31.0015089707603	-43.03134988340035	36.34566640425751	87.81955615738063
0.09	46.41979159894743	-111.4026998109864	35.05025024033122	0	0	0	-30.88647377344876	17.26765469255121	13.14475442066973	65.76546666393558	-15.81895771002911	4.939985895153365	54.14868666810265	19.19256426390596	-20.55804342195285	30.57190399388303	88.20302796501592
0.09999999999999999	47.77486733077649	-112.1966936053304	36.32852289110276	0	0	0	-31.18726459740172	16.36515177439236	12.7252339843674	64.91267342488165	-16.22831970362943	5.419759261498161	53.88692984237544	19.12729608410684	-21.07381041309643	29.43665960932519	88.25880875113994
0.11	65.46719587823281	-172.8956691881568	-21.23191462145824	0	0	0	-38.36997573941888	16.89098844847001	30.65640271346364	54.04098757301165	2.049602596686964	6.65200078084587	34.14264314148279	37.38078020828031	-37.98737635925054	36.40676840836794	87.81749764332268
0.12	66.49546704526992	-170.6240545970066	-23.05461687503067	0	0	0	-39.68645786476093	10.77203027248595	32.58729234837237	48.79370555789525	-0.07129166059560789	11.36054249620766	26.85944467682487	38.96687576374408	-46.98579189025057	24.93863168252099	88.55653437568806
0.13	44.97261213054141	-112.4203299639414	33.66261698414844	0	0	0	-34.73024151853676	16.16994976312371	10.79700865555981	64.96961703986284	-15.57155393705783	2.337223915469045	62.16655122978808	24.05691996785986	-22.14342824060202	28.25520103614493	88.35216569915741
0.14	41.76053844880842	-112.5556280104328	30.09680459568621	0	0	0	-34.71520198272089	16.1782591824695	10.78367884173236	64.43998065800162	-15.35559233593164	2.051999150495875	61.8933689181961	23.84067781466088	-22.09946414750826	28.81191831015354	88.30431981622431
0.15	58.71111011847692	-175.5846264548059	-22.31747867645887	0	0	0	-44.51667381971021	13.12947322096548	29.77538709545084	47.42423341896565	-0.578625741034316	10.54548382651518	35.36996148956936	33.83482458533306	-48.59729375438106	24.93728168611655	88.56147109308287
0.16	40.83440304430145	-113.5730739596373	29.03860510628407	0	0	0	-34.44121750395957	15.83992337249655	12.42639158779535	64.3943753498921	-14.5452966909474	1.496430484132778	66.60895887356325	23.29469868700675	-24.18066867967901	27.90741497443072	88.36834584161443
0.17	58.7264457730113	-174.7163735772718	-22.7367567260116	0	0	0	-47.48643092166782	12.95466260510926	28.80213230182469	44.45153344962769	-1.436911780094743	9.746643953616863	37.12613002326572	31.13088963648045	-52.39653245061928	35.26433549544472	87.89371450760301
0.18	43.11723274041486	-112.9517320431796	31.21340259490157	0	0	0	-36.00116705636898	15.87549774436645	12.19270252503604	63.52860386314536	-14.14942324232314	1.703826524538034	67.85605202819006	23.00978644427935	-24.98153441149518	28.40025862846772	88.33120637451988
0.19	56.09791842521217	-174.91053722485	-20.63992032685078	0	0	0	-48.98028715338929	14.16564008533148	26.75079354070111	44.22942079185017	-1.993769496481267	7.818119842231371	38.9220239077721	29.27166050779551	-51.91023654116635	42.89966057987157	87.44179783981403
0.2	51.87611597604513	-174.1800292297115	-18.57735598976438	0	0	0	-49.42010835503606	15.00459942597019	24.65171379100802	44.55499553059165	-2.882157271409139	5.481501826085634	39.03348554268198	27.23789443103666	-50.90238359871841	47.40632919737288	87.19732183364086
0.21	44.62680273005059	-112.2455402555668	32.64096828108337	0	0	0	-35.49141876312066	13.22777815260308	13.09211542627013	62.23871324368223	-13.13832647410323	1.070174430949208	66.64530788725703	20.32754880267839	-22.93868506328904	29.5772316136287	88.25012993733222
0.2200000000000001	41.9065412574197	-112.3114316134381	30.24462209757905	0	0	0	-35.52429519682682	13.71876203937544	13.32131365124245	61.88678846975859	-12.73807840485714	0.8534226869986915	66.34835298491387	20.32138544831265	-22.69628874405523	30.68681153893105	88.18455574573817
0.2300000000000001	35.64894502283638	-113.8650215055057	24.60663784109155	0	0	0	-34.42821397097983	13.25216814871215	12.57117422929852	62.34045776786296	-13.89396188970998	1.323796773011405	66.87607005741238	20.44149049361861	-22.21990788840798	28.34696932055058	88.33684187944819
0.2400000000000001	36.90917601389472	-112.9673586004879	25.74268835546721	0	0	0	-34.53592759952525	13.32549991650759	12.44130549411839	62.06296633556612	-13.92175396731222	1.248564978611132	66.85598049464275	20.24826423881411	-22.17373693269321	28.92108736837942	88.30400689988429
0.2500000000000001	38.4517902933883	-112.8406962989581	27.11679499744073	0	0	0	-34.63599670413215	13.30718247261803	12.53103060073782	61.81275989597564	-13.80097916673296	1.35057888014279	66.7081404450791	20.28519486893479	-22.31247623167013	29.09337727300568	88.28798542445618
0.2600000000000001	38.48912708691073	-112.9319918756108	27.24520251417257	0	0	0	-34.6833556524203	13.24075304083319	12.42977601621861	61.34862617728431	-13.77852898145182	1.535638486490269	66.66436627733302	20.20279355462431	-22.4116883266515	28.47470170616008	88.32949903709795
0.2700000000000001	38.52719308267894	-113.4235676661016	27.10589201658058	0	0	0	-34.61329808620965	13.18502245444288	12.42413598445147	61.39792216850934	-13.80965341680078	1.587455156161472	66.72547078757341	20.21332626135983	-22.39293919565086	28.65461520225506	88.31906181715935
0.2800000000000001	38.67806665279409	-112.1980132978205	27.38886314912887	0	0	0	-34.89667971232771	13.31680324549739	12.12354175820129	61.14458805112178	-13.95553387473412	1.364199644690796	66.4823606271185	19.84897037819298	-22.65192787475272	29.37907817424197	88.2782700725396
0.2900000000000001	39.18111395865037	-112.0965703737765	27.66390744199675	0	0	0	-34.98167099448123	13.15979350821148	12.11696065824248	60.87065074694914	-13.99274413094497	1.570711994315815	66.42103659936708	19.95113972967641	-22.75795376482065	28.46674479963064	88.33523861695635
0.3000000000000001	42.99292553990166	-110.0745260720701	31.07054468876236	0	0	0	-35.25741178234598	13.58679624988126	12.36918719639652	60.26475673866643	-13.50440574096735	1.352398150245649	66.22988959595223	19.80699442982756	-22.23313220851752	29.22531691882833	88.27428462081521
0.3100000000000001	42.4639314937855	-112.5097920435835	29.78297196878751	0	0	0	-34.66074286446982	13.80750122735661	13.18888874377811	60.19351297629003	-12.80456144877234	1.515486871463551	66.65532913174995	20.39272879477855	-20.49714475129644	30.04261013914808	88.21780205286005
0.3200000000000001	41.07533976240971	-111.2196562195152	28.83039850124065	0	0	0	-34.96341071099713	13.81012007565601	12.4814328921201	59.56579458587902	-13.21856660011565	1.385218451783362	66.43984897235055	19.62631574580541	-20.79708976960302	29.54769089203369	88.24539976022108
